<?xml version="1.0" encoding="iso-8859-1"?>
<!-- Generator: Adobe Illustrator 18.0.0, SVG Export Plug-In . SVG Version: 6.00 Build 0)  -->
<!DOCTYPE svg PUBLIC "-//W3C//DTD SVG 1.1//EN" "http://www.w3.org/Graphics/SVG/1.1/DTD/svg11.dtd">
<svg version="1.1" id="Capa_1" xmlns="http://www.w3.org/2000/svg" xmlns:xlink="http://www.w3.org/1999/xlink" x="0px" y="0px"
	 viewBox="0 0 410.041 410.041" style="enable-background:new 0 0 410.041 410.041;" xml:space="preserve">
<g>
	<path d="M360.399,86.9c-3.873-3.873-10.129-3.9-14.042-0.091V34.444c0-5.523-4.477-10-10-10c-5.523,0-10,4.477-10,10v52.365
		c-3.913-3.809-10.169-3.782-14.042,0.091c-3.905,3.905-3.905,10.237,0,14.143l16.971,16.971c1.953,1.953,4.512,2.929,7.071,2.929
		s5.119-0.976,7.071-2.929l16.971-16.971C364.303,97.137,364.303,90.805,360.399,86.9z"/>
	<path d="M268.882,58.577v52.365c0,5.523,4.477,10,10,10c5.523,0,10-4.477,10-10V58.576c1.94,1.89,4.454,2.839,6.972,2.839
		c2.559,0,5.119-0.977,7.071-2.929c3.905-3.905,3.905-10.237,0-14.142l-16.972-16.971c-1.875-1.875-4.419-2.929-7.071-2.929
		c-2.652,0-5.196,1.054-7.071,2.929L254.84,44.345c-3.905,3.905-3.905,10.237,0.001,14.142
		C258.713,62.36,264.969,62.386,268.882,58.577z"/>
	<path d="M283.145,202.71c-5.295,0-10.546,0.937-15.491,2.721c-7.307-13.76-21.779-23.152-38.4-23.152
		c-3.739,0-7.367,0.441-10.831,1.269l-0.015-140.045C218.408,19.516,198.893,0,174.905,0c-11.496,0-22.337,4.443-30.526,12.511
		c-8.175,8.055-12.78,18.808-12.968,30.278l-0.003,0.163v0.164V55.93c-3.526-0.866-7.17-1.313-10.855-1.313
		c-23.987,0-43.502,19.516-43.502,43.504v129.642c-15.785,5.51-29.605,20.189-30.192,41.041
		c-0.917,32.573,1.762,73.8,30.856,103.724c24.543,25.243,62.893,37.514,117.243,37.514c48.934,0,85.144-14.42,107.628-42.859
		c15.792-19.975,24.139-46.873,24.139-77.787l-0.075-43.216C326.649,222.226,307.133,202.71,283.145,202.71z M194.957,390.041
		c-114.589,0-129.868-58.086-128.107-120.675c0.425-15.095,13.401-24.011,24.011-24.011v27.683c0,3.482,2.414,3.887,3.135,3.887
		c0.721,0,3.055-0.396,3.055-3.878c0-3.361,0-174.927,0-174.927c0-12.98,10.522-23.504,23.502-23.504
		c11.911,0,23.287,8.648,23.287,20.35c0.008,0.043-0.087,112.092-0.087,112.092c0,2.114,1.713,3.827,3.828,3.827
		c2.113,0,3.827-1.713,3.827-3.827V43.116C151.618,30.316,162.053,20,174.905,20c12.98,0,23.503,10.524,23.503,23.504l0.019,179.815
		c0,2.083,1.687,3.77,3.77,3.77c2.08,0,3.768-1.687,3.768-3.77l-0.007-0.974c0-11.818,11.484-20.067,23.296-20.067
		c12.982,0,23.456,10.523,23.456,23.504l0.047,17.227c0,2.026,1.643,3.668,3.668,3.668c2.026,0,3.667-1.642,3.667-3.668
		l-0.013-1.311c0-10.748,11.629-18.988,23.066-18.988c12.98,0,23.504,10.523,23.504,23.503l0.075,43.182
		C306.724,329.556,291.105,390.041,194.957,390.041z"/>
</g>
<g>
</g>
<g>
</g>
<g>
</g>
<g>
</g>
<g>
</g>
<g>
</g>
<g>
</g>
<g>
</g>
<g>
</g>
<g>
</g>
<g>
</g>
<g>
</g>
<g>
</g>
<g>
</g>
<g>
</g>
</svg>
